<svg width="138" height="66" viewBox="0 0 138 66" fill="none" xmlns="http://www.w3.org/2000/svg">
<rect width="138" height="66" fill="white"/>
<g clip-path="url(#clip0_433_61)">
<path d="M4 24.5619V49.1235H68.9954H133.991V24.5619V0.000249976H68.9954H4V24.5619ZM39.4612 14.466V16.676H37.0502H34.6393V14.466V12.256H37.0502H39.4612V14.466ZM32.9315 14.6167V16.7765H26.9041H20.8767V19.4386V22.1007H26.1507H31.4247V24.2605V26.4203H26.1507H20.8767V31.4934V36.5665H18.3151H15.7534V24.5117V12.4569H24.3425H32.9315V14.6167ZM85.7717 24.5117V36.5665H83.3607H80.9498V24.5117V12.4569H83.3607H85.7717V24.5117ZM54.5196 18.4441C56.4082 18.876 57.7644 20.1016 58.4173 21.9601L58.6986 22.7537L58.7288 29.655L58.7589 36.5665H56.3379H53.9269V30.7098C53.9269 25.8276 53.8968 24.7528 53.7662 24.2103C53.4447 22.824 52.8521 22.392 51.1945 22.3217C49.6776 22.2514 48.7735 22.6331 48.1105 23.6076C47.4274 24.6121 47.4575 24.371 47.3973 30.74L47.347 36.5162L44.9662 36.5464L42.5753 36.5665V27.6258V18.6852H44.8858H47.1963V19.9007V21.1162L47.6384 20.5336C48.1909 19.7802 48.5123 19.4888 49.2557 19.0368C49.8785 18.6651 50.6018 18.4139 51.4658 18.2733C52.1288 18.1729 53.716 18.2532 54.5196 18.4441ZM71.0749 18.2934C72.1799 18.4139 73.4959 18.7655 74.2493 19.1473C76.6201 20.3427 78.1671 22.5327 78.7498 25.5162C78.9406 26.4806 78.9105 29.0021 78.6995 29.9865C78.2776 31.8952 77.5744 33.2112 76.2283 34.5674C75.4046 35.3911 75.1434 35.592 74.3196 35.9939C72.9836 36.6569 72.0594 36.8779 70.3415 36.9381C67.2374 37.0587 65.0173 36.3153 63.3598 34.5875C61.7726 32.95 60.8484 30.7299 60.6977 28.2487C60.5169 25.1948 61.4511 22.5327 63.3799 20.5838C64.1233 19.8203 64.3644 19.6496 65.2886 19.2076C67.1068 18.3336 68.895 18.0523 71.0749 18.2934ZM97.3744 18.2834C99.4338 18.5244 100.589 19.0368 101.805 20.2423C102.498 20.9354 102.689 21.2066 103.181 22.2012C104.035 23.929 104.457 25.8578 104.457 28.0779V28.9318H98.3388H92.231L92.3114 29.4139C92.6329 31.4934 93.5772 32.6487 95.295 33.0505C96.0584 33.2313 97.2539 33.1409 97.8466 32.8596C98.4091 32.5884 99.052 31.9756 99.2329 31.5436L99.3534 31.2423H101.805C103.151 31.2423 104.256 31.2623 104.256 31.2925C104.256 31.3126 104.145 31.6441 104.005 32.0158C103.171 34.2258 101.222 36.0139 98.9315 36.6669C97.3443 37.129 94.3808 37.0286 92.7534 36.466C90.895 35.8231 89.4384 34.5774 88.6447 32.9299C87.5096 30.5993 87.1781 26.9929 87.8712 24.361C88.3836 22.382 89.579 20.5336 90.9452 19.5893C92.5626 18.4843 94.9032 18.0021 97.3744 18.2834ZM39.4612 27.6258V36.5665H37.0502H34.6393V27.6258V18.6852H37.0502H39.4612V27.6258ZM111.991 21.1966C112.784 22.5729 113.458 23.708 113.498 23.708C113.528 23.708 114.201 22.5729 114.995 21.1966L116.441 18.6852H119.244H122.047L119.174 22.9646C117.586 25.3254 116.27 27.3044 116.24 27.3747C116.22 27.455 117.556 29.5345 119.224 32.0158L122.247 36.5162L119.405 36.5464C117.847 36.5564 116.521 36.5564 116.461 36.5263C116.401 36.5062 115.678 35.3308 114.854 33.9144C114.02 32.498 113.327 31.3427 113.297 31.3427C113.267 31.3427 112.584 32.508 111.78 33.9345L110.313 36.5162L107.48 36.5464C105.14 36.5665 104.647 36.5464 104.678 36.4359C104.698 36.3555 106.024 34.3162 107.621 31.8952C109.228 29.4642 110.524 27.445 110.504 27.4048C110.494 27.3546 109.228 25.4359 107.691 23.1254C106.154 20.8249 104.858 18.876 104.818 18.8057C104.758 18.7153 105.351 18.6852 107.641 18.6852H110.544L111.991 21.1966Z" fill="#1D93D1"/>
<path d="M68.4831 22.442C67.8803 22.6027 67.1771 23.0246 66.8456 23.4164C65.3488 25.1945 65.1781 29.4438 66.5242 31.4228C67.8201 33.3114 71.2657 33.5023 72.8228 31.7744C73.6365 30.8703 73.958 29.7352 73.968 27.726C73.968 26.0484 73.8676 25.526 73.305 24.3507C72.8128 23.3059 72.2502 22.7836 71.326 22.5023C70.5826 22.2712 69.2265 22.2411 68.4831 22.442Z" fill="#1D93D1"/>
<path d="M95.2949 22.2014C94.6721 22.3119 93.8584 22.764 93.4968 23.206C93.0849 23.6882 92.7333 24.4416 92.5625 25.185L92.4219 25.8179H95.9881H99.5643L99.494 25.3859C99.4639 25.1549 99.3333 24.6928 99.2127 24.3613C98.9214 23.5476 97.9972 22.6033 97.2739 22.3722C96.621 22.1613 95.8776 22.0909 95.2949 22.2014Z" fill="#1D93D1"/>
<path d="M50.2101 54.6483C49.1854 54.8693 48.5525 55.6529 48.5626 56.7076C48.5626 57.8729 48.9443 58.2045 50.7827 58.6766C52.169 59.0282 52.4603 59.199 52.5005 59.6812C52.5206 59.9524 52.4703 60.083 52.2694 60.2739C52.0484 60.4848 51.8877 60.525 51.285 60.5551C50.411 60.5953 49.9991 60.3944 49.7982 59.8318L49.6676 59.4702H49.0347C48.442 59.4702 48.4019 59.4903 48.4019 59.6912C48.4119 60.4045 49.1653 61.2583 49.9991 61.4894C50.6119 61.6702 51.7471 61.6702 52.3699 61.4894C53.3945 61.188 54.0576 60.1232 53.8265 59.1186C53.6356 58.2547 53.1233 57.9232 51.3754 57.5113C49.9388 57.1798 49.6073 56.8985 49.8685 56.2054C50.0192 55.8236 51.0439 55.6127 51.6466 55.8437C51.9781 55.9743 52.3197 56.346 52.3197 56.5771C52.3197 56.7378 52.4101 56.7579 52.9726 56.7579C53.6055 56.7579 53.6256 56.7478 53.6256 56.5067C53.6256 55.8739 53.0831 55.1606 52.3498 54.8291C51.8375 54.6081 50.843 54.5177 50.2101 54.6483Z" fill="#4A4A4A"/>
<path d="M104.367 54.6479C103.442 54.8489 102.789 55.4114 102.327 56.416C102.126 56.8379 102.096 57.0689 102.096 58.1137C102.096 59.1484 102.126 59.3895 102.317 59.8014C102.669 60.5648 103.101 61.037 103.724 61.3484C104.226 61.5895 104.417 61.6196 105.21 61.6196C105.944 61.6196 106.215 61.5794 106.637 61.3886C107.601 60.9566 108.184 60.0826 108.365 58.8068C108.626 56.9986 107.933 55.4014 106.657 54.8589C106.074 54.6078 105.03 54.5073 104.367 54.6479ZM106.125 56.0041C106.767 56.3858 107.019 56.9685 107.019 58.1137C107.019 59.1584 106.777 59.8114 106.245 60.1931C105.924 60.4141 105.15 60.5447 104.718 60.4342C104.356 60.3438 103.874 59.9018 103.633 59.4297C103.322 58.847 103.322 57.3904 103.623 56.8078C104.005 56.0744 104.477 55.763 105.2 55.753C105.552 55.753 105.823 55.8233 106.125 56.0041Z" fill="#4A4A4A"/>
<path d="M117.717 54.6483C116.692 54.8693 116.059 55.6529 116.069 56.7076C116.069 57.8729 116.451 58.2045 118.29 58.6766C119.676 59.0282 119.967 59.199 120.007 59.6812C120.027 59.9524 119.977 60.083 119.776 60.2739C119.555 60.4848 119.395 60.525 118.792 60.5551C117.918 60.5953 117.506 60.3944 117.305 59.8318L117.174 59.4702H116.542C115.949 59.4702 115.909 59.4903 115.909 59.6912C115.919 60.4045 116.672 61.2583 117.506 61.4894C118.119 61.6702 119.254 61.6702 119.877 61.4894C120.901 61.188 121.564 60.1232 121.333 59.1186C121.142 58.2547 120.63 57.9232 118.882 57.5113C117.446 57.1798 117.114 56.8985 117.375 56.2054C117.526 55.8236 118.551 55.6127 119.153 55.8437C119.485 55.9743 119.826 56.346 119.826 56.5771C119.826 56.7378 119.917 56.7579 120.479 56.7579C121.112 56.7579 121.132 56.7478 121.132 56.5067C121.132 55.8739 120.59 55.1606 119.857 54.8291C119.344 54.6081 118.35 54.5177 117.717 54.6483Z" fill="#4A4A4A"/>
<path d="M24.7642 54.7484C24.1916 54.8991 23.8702 55.0899 23.4181 55.5822C22.8254 56.2251 22.5542 56.9986 22.5542 58.1137C22.5542 59.1685 22.6848 59.7411 23.1067 60.394C24.3222 62.3027 27.5168 61.9813 28.2601 59.8717C28.3405 59.6306 28.4108 59.4096 28.4108 59.3593C28.4108 59.3091 28.1195 59.2689 27.7579 59.2689C27.1149 59.2689 27.1049 59.279 26.9642 59.5904C26.7231 60.163 26.3715 60.4041 25.7186 60.4543C25.0154 60.5045 24.5734 60.2434 24.1916 59.5703C23.9807 59.1785 23.9505 58.9876 23.9505 58.2141C23.9405 57.4507 23.9807 57.2297 24.1916 56.8077C24.5131 56.1749 24.9752 55.8534 25.5679 55.8534C26.2008 55.8534 26.6729 56.1045 26.914 56.5666L27.1049 56.9584H27.7579C28.3706 56.9584 28.4108 56.9484 28.4108 56.7274C28.4108 56.6068 28.2702 56.2753 28.1094 55.984C27.6373 55.1602 26.9642 54.7785 25.8291 54.7082C25.4574 54.6781 24.9752 54.6981 24.7642 54.7484Z" fill="#4A4A4A"/>
<path d="M78.107 54.7484C77.5344 54.8991 77.213 55.0899 76.7609 55.5822C76.1682 56.2251 75.897 56.9986 75.897 58.1137C75.897 59.1685 76.0276 59.7411 76.4495 60.394C77.665 62.3027 80.8595 61.9813 81.6029 59.8717C81.6833 59.6306 81.7536 59.4096 81.7536 59.3593C81.7536 59.3091 81.4623 59.2689 81.1006 59.2689C80.4577 59.2689 80.4477 59.279 80.307 59.5904C80.0659 60.163 79.7143 60.4041 79.0614 60.4543C78.3582 60.5045 77.9162 60.2434 77.5344 59.5703C77.3235 59.1785 77.2933 58.9876 77.2933 58.2141C77.2833 57.4507 77.3235 57.2297 77.5344 56.8077C77.8559 56.1749 78.318 55.8534 78.9107 55.8534C79.5435 55.8534 80.0157 56.1045 80.2568 56.5666L80.4477 56.9584H81.1006C81.7134 56.9584 81.7536 56.9484 81.7536 56.7274C81.7536 56.6068 81.613 56.2753 81.4522 55.984C80.9801 55.1602 80.307 54.7785 79.1719 54.7082C78.8002 54.6781 78.318 54.6981 78.107 54.7484Z" fill="#4A4A4A"/>
<path d="M16.3662 55.1206C16.4968 55.3315 16.8986 55.9845 17.2703 56.5772C17.642 57.1599 17.9936 57.7425 18.0639 57.8631C18.1644 58.0439 18.0539 58.2649 17.1799 59.6512C16.6374 60.5151 16.1552 61.2886 16.1151 61.3489C16.0648 61.4494 16.2256 61.4795 16.8283 61.4795H17.6219L18.305 60.3142L18.9881 59.1489L19.621 60.2941L20.2539 61.4293L21.0676 61.4594C21.5196 61.4795 21.8813 61.4594 21.8813 61.4293C21.8813 61.4092 21.4091 60.6156 20.8265 59.6813L19.7616 57.9836L20.6758 56.5571C21.9717 54.5279 21.9315 54.7489 21.0073 54.7489H20.2237L19.6411 55.8037C19.3196 56.3863 19.0183 56.8585 18.9881 56.8585C18.9479 56.8585 18.6667 56.3964 18.3552 55.8238L17.7927 54.7991L16.9689 54.769L16.1351 54.7389L16.3662 55.1206Z" fill="#4A4A4A"/>
<path d="M29.6157 58.1142V61.4795H32.1271H34.6386V60.8768V60.274H32.7801H30.9217V59.4201V58.5663H32.529H34.1363V57.9635V57.3608H32.529H30.9217V56.6576V55.9544H32.6796H34.4376V55.3516V54.7489H32.0267H29.6157V58.1142Z" fill="#4A4A4A"/>
<path d="M35.8452 58.1142V61.4795H38.3566H40.868V60.8768V60.274H39.0096H37.1512V59.4201V58.5663H38.7585H40.3658V57.9635V57.3608H38.7585H37.1512V56.6576V55.9544H38.9091H40.6671V55.3516V54.7489H38.2562H35.8452V58.1142Z" fill="#4A4A4A"/>
<path d="M41.9722 58.1141V61.4995L43.8105 61.4593C45.8397 61.4191 46.1009 61.3488 46.7639 60.6557C47.437 59.9625 47.7685 58.5863 47.5877 57.2803C47.427 56.1653 46.985 55.4621 46.1612 55.0301C45.7795 54.8292 45.5585 54.7991 43.8608 54.7689L41.9722 54.7287V58.1141ZM45.5685 56.1552C46.0407 56.4465 46.2215 56.9388 46.2315 57.9634C46.2315 59.0182 46.0909 59.4602 45.5786 59.9123C45.1868 60.2739 45.1868 60.2739 44.2324 60.2739H43.2781V58.1141V55.9543H44.2626C45.0662 55.9543 45.2973 55.9945 45.5685 56.1552Z" fill="#4A4A4A"/>
<path d="M57.3525 55.1206C57.4831 55.3315 57.8849 55.9845 58.2566 56.5772C58.6283 57.1599 58.9799 57.7425 59.0502 57.8631C59.1507 58.0439 59.0402 58.2649 58.1662 59.6512C57.6238 60.5151 57.1416 61.2886 57.1014 61.3489C57.0512 61.4494 57.2119 61.4795 57.8146 61.4795H58.6082L59.2913 60.3142L59.9744 59.1489L60.6073 60.2941L61.2402 61.4293L62.0539 61.4594C62.506 61.4795 62.8676 61.4594 62.8676 61.4293C62.8676 61.4092 62.3955 60.6156 61.8128 59.6813L60.748 57.9836L61.6621 56.5571C62.958 54.5279 62.9178 54.7489 61.9936 54.7489H61.2101L60.6274 55.8037C60.306 56.3863 60.0046 56.8585 59.9744 56.8585C59.9343 56.8585 59.653 56.3964 59.3416 55.8238L58.779 54.7991L57.9553 54.769L57.1215 54.7389L57.3525 55.1206Z" fill="#4A4A4A"/>
<path d="M63.8721 58.1042V61.4795H64.525H65.178V60.2841V59.0987L66.3734 59.0484C67.378 59.0083 67.6291 58.958 68.0008 58.7571C68.6237 58.4156 68.8949 57.853 68.8949 56.9087C68.8949 55.9644 68.6237 55.4019 67.9908 55.0503C67.5588 54.8092 67.4383 54.7991 65.7104 54.769L63.8721 54.7288V58.1042ZM67.1168 56.0649C67.6593 56.306 67.7497 57.1197 67.2976 57.5717C67.0164 57.853 66.9661 57.8631 66.0922 57.8631H65.178V56.9087V55.9544H66.0319C66.494 55.9544 66.9862 56.0046 67.1168 56.0649Z" fill="#4A4A4A"/>
<path d="M70 58.1142V61.4795H72.5114H75.0228V60.8768V60.274H73.1644H71.3059V59.4201V58.5663H72.9132H74.5205V57.9635V57.3608H72.9132H71.3059V56.6576V55.9544H73.0639H74.8219V55.3516V54.7489H72.411H70V58.1142Z" fill="#4A4A4A"/>
<path d="M82.3564 55.3516V55.9544H83.361H84.3656V58.7169V61.4795H85.0185H85.6715V58.7169V55.9544H86.7263H87.7811V55.3516V54.7489H85.0688H82.3564V55.3516Z" fill="#4A4A4A"/>
<path d="M88.6855 57.9836C88.0526 59.7516 87.5202 61.2685 87.5001 61.3489C87.4699 61.4494 87.6307 61.4795 88.1731 61.4795H88.8763L89.0973 60.7763L89.3284 60.0731H90.6042H91.8699L92.0608 60.7462L92.2617 61.4293L92.985 61.4594C93.3868 61.4795 93.7083 61.4494 93.7083 61.3991C93.7083 61.3489 93.1859 59.8521 92.553 58.064C91.9202 56.2758 91.3978 54.7991 91.3978 54.779C91.3978 54.7589 91.0462 54.7489 90.6142 54.7489H89.8407L88.6855 57.9836ZM91.3576 58.5863L91.4179 58.8676H90.5539H89.7001L90.1019 57.6822C90.3128 57.0393 90.5238 56.4366 90.5539 56.3562C90.6042 56.2256 91.1969 57.8831 91.3576 58.5863Z" fill="#4A4A4A"/>
<path d="M93.4058 55.3516V55.9544H94.4103H95.4149V58.7169V61.4795H96.0679H96.7208V58.7169V55.9544H97.7756H98.8304V55.3516V54.7489H96.1181H93.4058V55.3516Z" fill="#4A4A4A"/>
<path d="M99.5342 58.1142V61.4795H100.237H100.941V58.1142V54.7489H100.237H99.5342V58.1142Z" fill="#4A4A4A"/>
<path d="M109.479 58.1142V61.4795H110.132H110.785L110.805 59.1188L110.835 56.7681L112.191 59.1188L113.547 61.4795H114.221H114.904V58.1142V54.7489H114.251H113.598L113.578 57.0594L113.547 59.3599L112.242 57.0594L110.936 54.7589L110.212 54.7489H109.479V58.1142Z" fill="#4A4A4A"/>
</g>
<defs>
<clipPath id="clip0_433_61">
<rect width="129.991" height="66" fill="white" transform="translate(4)"/>
</clipPath>
</defs>
</svg>
